# xmcd
#
# Track frame offsets:
#       150
#       16345
#       40642
#       51620
#       68302
#       89397
#       120210
#       139100
#       157145
#       175340
#       196662
#
# Disc length: 2878 seconds
#
# Revision: 32
# Processed by: cddbd v1.5.1PL0 Copyright (c) Steve Scherf et al.
# Submitted via: MusiCat 1.1
#
DISCID=880b3c0b
DTITLE=Stevie Ray Vaughan - Greatest Hits
DYEAR=1995
DGENRE=
TTITLE0=Taxman
TTITLE1=Texas Flood
TTITLE2=The House Is Rockin'
TTITLE3=Pride and Joy
TTITLE4=Tightrope
TTITLE5=Little Wing
TTITLE6=Crossfire
TTITLE7=Change it
TTITLE8=Cold Shot
TTITLE9=Couldn't Stand the Weather
TTITLE10=Life Without You
EXTD=\n\nMPC
EXTT0=
EXTT1=
EXTT2=
EXTT3=
EXTT4=
EXTT5=
EXTT6=
EXTT7=
EXTT8=
EXTT9=
EXTT10=
PLAYORDER=
